<?xml version="1.0" encoding="UTF-8" standalone="no"?>
<svg width="184px" height="42px" viewBox="0 0 184 42" version="1.1" xmlns="http://www.w3.org/2000/svg" xmlns:xlink="http://www.w3.org/1999/xlink" xmlns:sketch="http://www.bohemiancoding.com/sketch/ns">
    <!-- Generator: Sketch 3.3.3 (12081) - http://www.bohemiancoding.com/sketch -->
    <title>logo</title>
    <desc>Created with Sketch.</desc>
    <defs></defs>
    <g id="Page-1" stroke="none" stroke-width="1" fill="none" fill-rule="evenodd" sketch:type="MSPage">
        <g id="logo" sketch:type="MSLayerGroup" fill="#DA0068">
            <path d="M27.6466064,26.0649414 L29.3077393,22.9272461 L29.3077393,40 L27.6466064,40 L27.6466064,26.0649414 Z M30.9688721,19.6972656 L32.6300049,16.5595703 L32.6300049,40 L30.9688721,40 L30.9688721,19.6972656 Z M34.2911377,13.421875 L35.9522705,10.2611084 L35.9522705,40 L34.2911377,40 L34.2911377,13.421875 Z M23.1477051,25.2805176 L22.2017822,23.5501709 L33.6451416,1.79394531 L35.513916,1.79394531 L23.1477051,25.2805176 Z M21.2327881,21.6583252 L20.2637939,19.9049072 L29.8614502,1.79394531 L31.7532959,1.79394531 L21.2327881,21.6583252 Z M10.1124268,23.1118164 L11.7735596,26.2495117 L11.7735596,40 L10.1124268,40 L10.1124268,23.1118164 Z M6.79016113,16.7902832 L8.45129395,19.9279785 L8.45129395,40 L6.79016113,40 L6.79016113,16.7902832 Z M3.46789551,10.46875 L5.12902832,13.6295166 L5.12902832,40 L3.46789551,40 L3.46789551,10.46875 Z M16.8953857,30.0332031 L15.0266113,30.0332031 L1.8067627,4.95471191 L1.8067627,40 L0.145629883,40 L0.145629883,1.79394531 L2.0144043,1.79394531 L16.8953857,30.0332031 Z M20.6560059,30.0332031 L18.7641602,30.0332031 L3.90625,1.79394531 L5.7980957,1.79394531 L20.6560059,30.0332031 Z M37.6134033,4.95471191 L24.3935547,30.0332031 L22.501709,30.0332031 L7.66687012,1.79394531 L9.53564453,1.79394531 L23.4707031,28.2797852 L37.3826904,1.79394531 L39.2745361,1.79394531 L39.2745361,40 L37.6134033,40 L37.6134033,4.95471191 Z M54.432373,20.8969727 C54.432373,23.4194462 55.324454,25.572745 57.1086426,27.3569336 C58.8928312,29.1411222 61.04613,30.0332031 63.5686035,30.0332031 C66.0910771,30.0332031 68.2443758,29.1411222 70.0285645,27.3569336 C71.8127531,25.572745 72.704834,23.4194462 72.704834,20.8969727 C72.704834,18.3744991 71.8127531,16.2212003 70.0285645,14.4370117 C68.2443758,12.6528231 66.0910771,11.7607422 63.5686035,11.7607422 C61.04613,11.7607422 58.8928312,12.6528231 57.1086426,14.4370117 C55.324454,16.2212003 54.432373,18.3744991 54.432373,20.8969727 L54.432373,20.8969727 Z M52.7712402,20.8969727 C52.7712402,19.4357837 53.0557833,18.0399847 53.6248779,16.7095337 C54.1939726,15.3790827 54.9630079,14.229375 55.9320068,13.260376 C56.9010058,12.291377 58.0507136,11.5223417 59.3811646,10.9532471 C60.7116155,10.3841524 62.1074146,10.0996094 63.5686035,10.0996094 C65.0297925,10.0996094 66.4255915,10.3841524 67.7560425,10.9532471 C69.0864935,11.5223417 70.2362012,12.291377 71.2052002,13.260376 C72.1741992,14.229375 72.9432345,15.3790827 73.5123291,16.7095337 C74.0814237,18.0399847 74.3659668,19.4357837 74.3659668,20.8969727 C74.3659668,22.3581616 74.0814237,23.7539606 73.5123291,25.0844116 C72.9432345,26.4148626 72.1741992,27.5645704 71.2052002,28.5335693 C70.2362012,29.5025683 69.0864935,30.2716036 67.7560425,30.8406982 C66.4255915,31.4097929 65.0297925,31.6943359 63.5686035,31.6943359 C62.1074146,31.6943359 60.7116155,31.4097929 59.3811646,30.8406982 C58.0507136,30.2716036 56.9010058,29.5025683 55.9320068,28.5335693 C54.9630079,27.5645704 54.1939726,26.4148626 53.6248779,25.0844116 C53.0557833,23.7539606 52.7712402,22.3581616 52.7712402,20.8969727 L52.7712402,20.8969727 Z M51.1101074,20.8969727 C51.1101074,23.1579703 51.667658,25.2420559 52.7827759,27.149292 C53.8978938,29.0565281 55.4090481,30.5676824 57.3162842,31.6828003 C59.2235203,32.7979182 61.3076059,33.3554688 63.5686035,33.3554688 C65.8296011,33.3554688 67.9136868,32.7979182 69.8209229,31.6828003 C71.728159,30.5676824 73.2393133,29.0565281 74.3544312,27.149292 C75.469549,25.2420559 76.0270996,23.1579703 76.0270996,20.8969727 C76.0270996,18.635975 75.469549,16.5518894 74.3544312,14.6446533 C73.2393133,12.7374172 71.728159,11.2262629 69.8209229,10.111145 C67.9136868,8.99602714 65.8296011,8.43847656 63.5686035,8.43847656 C61.3076059,8.43847656 59.2235203,8.99602714 57.3162842,10.111145 C55.4090481,11.2262629 53.8978938,12.7374172 52.7827759,14.6446533 C51.667658,16.5518894 51.1101074,18.635975 51.1101074,20.8969727 L51.1101074,20.8969727 Z M49.4489746,20.8969727 C49.4489746,18.3437372 50.0795835,15.9827989 51.3408203,13.8140869 C52.6020571,11.6453749 54.3170058,9.93042623 56.4857178,8.66918945 C58.6544298,7.40795268 61.0153681,6.77734375 63.5686035,6.77734375 C66.1218389,6.77734375 68.4827772,7.40795268 70.6514893,8.66918945 C72.8202013,9.93042623 74.5351499,11.6453749 75.7963867,13.8140869 C77.0576235,15.9827989 77.6882324,18.3437372 77.6882324,20.8969727 C77.6882324,23.4502081 77.0576235,25.8111464 75.7963867,27.9798584 C74.5351499,30.1485704 72.8202013,31.8635191 70.6514893,33.1247559 C68.4827772,34.3859926 66.1218389,35.0166016 63.5686035,35.0166016 C61.0153681,35.0166016 58.6544298,34.3859926 56.4857178,33.1247559 C54.3170058,31.8635191 52.6020571,30.1485704 51.3408203,27.9798584 C50.0795835,25.8111464 49.4489746,23.4502081 49.4489746,20.8969727 L49.4489746,20.8969727 Z M47.7878418,20.8969727 C47.7878418,23.0349228 48.2031208,25.0805566 49.0336914,27.0339355 C49.864262,28.9873145 50.9832083,30.6676565 52.390564,32.0750122 C53.7979196,33.4823679 55.4782617,34.6013142 57.4316406,35.4318848 C59.3850195,36.2624553 61.4306534,36.6777344 63.5686035,36.6777344 C65.7065537,36.6777344 67.7521875,36.2624553 69.7055664,35.4318848 C71.6589453,34.6013142 73.3392874,33.4823679 74.7466431,32.0750122 C76.1539987,30.6676565 77.2729451,28.9873145 78.1035156,27.0339355 C78.9340862,25.0805566 79.3493652,23.0349228 79.3493652,20.8969727 C79.3493652,18.7590225 78.9340862,16.7133887 78.1035156,14.7600098 C77.2729451,12.8066309 76.1539987,11.1262888 74.7466431,9.71893311 C73.3392874,8.31157744 71.6589453,7.19263111 69.7055664,6.36206055 C67.7521875,5.53148999 65.7065537,5.11621094 63.5686035,5.11621094 C61.4306534,5.11621094 59.3850195,5.53148999 57.4316406,6.36206055 C55.4782617,7.19263111 53.7979196,8.31157744 52.390564,9.71893311 C50.9832083,11.1262888 49.864262,12.8066309 49.0336914,14.7600098 C48.2031208,16.7133887 47.7878418,18.7590225 47.7878418,20.8969727 L47.7878418,20.8969727 Z M46.126709,20.8969727 C46.126709,17.7438807 46.9072798,14.829237 48.4684448,12.1529541 C50.0296099,9.47667119 52.148302,7.357979 54.824585,5.79681396 C57.5008679,4.23564893 60.4155116,3.45507812 63.5686035,3.45507812 C66.7216955,3.45507812 69.6363392,4.23564893 72.3126221,5.79681396 C74.988905,7.357979 77.1075972,9.47667119 78.6687622,12.1529541 C80.2299272,14.829237 81.010498,17.7438807 81.010498,20.8969727 C81.010498,24.0500646 80.2299272,26.9647083 78.6687622,29.6409912 C77.1075972,32.3172741 74.988905,34.4359663 72.3126221,35.9971313 C69.6363392,37.5582964 66.7216955,38.3388672 63.5686035,38.3388672 C60.4155116,38.3388672 57.5008679,37.5582964 54.824585,35.9971313 C52.148302,34.4359663 50.0296099,32.3172741 48.4684448,29.6409912 C46.9072798,26.9647083 46.126709,24.0500646 46.126709,20.8969727 L46.126709,20.8969727 Z M44.4655762,20.8969727 C44.4655762,23.48097 44.9692943,25.9534184 45.9767456,28.3143921 C46.9841969,30.6753658 48.3415442,32.7094641 50.0488281,34.416748 C51.7561121,36.124032 53.7902104,37.4813792 56.1511841,38.4888306 C58.5121578,39.4962819 60.9846062,40 63.5686035,40 C66.1526008,40 68.6250492,39.4962819 70.9860229,38.4888306 C73.3469967,37.4813792 75.381095,36.124032 77.0883789,34.416748 C78.7956628,32.7094641 80.1530101,30.6753658 81.1604614,28.3143921 C82.1679128,25.9534184 82.6716309,23.48097 82.6716309,20.8969727 C82.6716309,18.3129754 82.1679128,15.8405269 81.1604614,13.4795532 C80.1530101,11.1185795 78.7956628,9.08448119 77.0883789,7.37719727 C75.381095,5.66991334 73.3469967,4.31256607 70.9860229,3.30511475 C68.6250492,2.29766342 66.1526008,1.79394531 63.5686035,1.79394531 C60.9846062,1.79394531 58.5121578,2.29766342 56.1511841,3.30511475 C53.7902104,4.31256607 51.7561121,5.66991334 50.0488281,7.37719727 C48.3415442,9.08448119 46.9841969,11.1185795 45.9767456,13.4795532 C44.9692943,15.8405269 44.4655762,18.3129754 44.4655762,20.8969727 L44.4655762,20.8969727 Z M42.8044434,20.8969727 C42.8044434,18.0822613 43.3543036,15.394483 44.4540405,12.8335571 C45.5537775,10.2726312 47.0303252,8.06549999 48.883728,6.21209717 C50.7371308,4.35869435 52.9442621,2.88214661 55.505188,1.78240967 C58.0661139,0.682672724 60.7538922,0.1328125 63.5686035,0.1328125 C66.3833149,0.1328125 69.0710932,0.682672724 71.632019,1.78240967 C74.1929449,2.88214661 76.4000762,4.35869435 78.253479,6.21209717 C80.1068818,8.06549999 81.5834296,10.2726312 82.6831665,12.8335571 C83.7829034,15.394483 84.3327637,18.0822613 84.3327637,20.8969727 C84.3327637,23.711684 83.7829034,26.3994623 82.6831665,28.9603882 C81.5834296,31.5213141 80.1068818,33.7284453 78.253479,35.5818481 C76.4000762,37.435251 74.1929449,38.9117987 71.632019,40.0115356 C69.0710932,41.1112726 66.3833149,41.6611328 63.5686035,41.6611328 C60.7538922,41.6611328 58.0661139,41.1112726 55.505188,40.0115356 C52.9442621,38.9117987 50.7371308,37.435251 48.883728,35.5818481 C47.0303252,33.7284453 45.5537775,31.5213141 44.4540405,28.9603882 C43.3543036,26.3994623 42.8044434,23.711684 42.8044434,20.8969727 L42.8044434,20.8969727 Z" id="MO" sketch:type="MSShapeGroup"></path>
            <path d="M84.9073486,3.45507812 L84.9073486,1.79394531 L109.824341,1.79394531 L109.824341,3.45507812 L84.9073486,3.45507812 Z M84.9073486,6.77734375 L84.9073486,5.11621094 L109.824341,5.11621094 L109.824341,6.77734375 L84.9073486,6.77734375 Z M84.9073486,10.0996094 L84.9073486,8.43847656 L109.824341,8.43847656 L109.824341,10.0996094 L103.17981,10.0996094 L103.17981,40 L101.518677,40 L101.518677,10.0996094 L99.8575439,10.0996094 L99.8575439,40 L98.1964111,40 L98.1964111,10.0996094 L96.5352783,10.0996094 L96.5352783,40 L94.8741455,40 L94.8741455,10.0996094 L93.2130127,10.0996094 L93.2130127,40 L91.5518799,40 L91.5518799,10.0996094 L84.9073486,10.0996094 Z M129.019653,16.7441406 L126.228027,16.7441406 C125.043695,16.7441406 124.190066,16.4403717 123.667114,15.8328247 C123.144162,15.2252777 122.88269,14.4216359 122.88269,13.421875 C122.88269,11.2070202 124.536116,10.0996094 127.843018,10.0996094 C130.949967,10.0996094 133.287834,10.5610305 134.856689,11.4838867 L133.518555,12.4990234 C132.441889,12.0068335 130.550062,11.7607422 127.843018,11.7607422 C126.520257,11.7607422 125.632021,11.9068589 125.178284,12.1990967 C124.724546,12.4913345 124.497681,12.8989232 124.497681,13.421875 C124.497681,13.9448268 124.620726,14.3524155 124.866821,14.6446533 C125.112916,14.9368911 125.566647,15.0830078 126.228027,15.0830078 L129.088867,15.0830078 C131.165294,15.0830078 133.037894,15.436764 134.706726,16.1442871 C136.375558,16.8518102 137.748286,17.8169495 138.824951,19.0397339 C139.901617,20.2625183 140.724484,21.6698529 141.293579,23.2617798 C141.862674,24.8537067 142.147217,26.5571198 142.147217,28.3720703 C142.147217,29.8486402 141.939577,31.2482844 141.524292,32.5710449 C141.109007,33.8938054 140.482243,35.1088812 139.643982,36.2163086 C138.805721,37.323736 137.798285,38.2811849 136.621643,39.0886841 C135.445001,39.8961832 134.045357,40.5267922 132.422668,40.9805298 C130.79998,41.4342674 129.042734,41.6611328 127.150879,41.6611328 C124.182358,41.6611328 121.402296,41.2112472 118.810608,40.3114624 C116.21892,39.4116776 114.061776,38.1543049 112.339111,36.5393066 L113.677246,35.5472412 C115.246102,36.9622873 117.210987,38.0581626 119.57196,38.8348999 C121.932934,39.6116372 124.459215,40 127.150879,40 C129.258067,40 131.161429,39.6962311 132.861023,39.0886841 C134.560616,38.4811371 135.960261,37.6467338 137.059998,36.5854492 C138.159735,35.5241646 139.005673,34.2937082 139.597839,32.894043 C140.190005,31.4943778 140.486084,29.9870686 140.486084,28.3720703 C140.486084,26.2341202 140.055424,24.2999964 139.194092,22.5696411 C138.332759,20.8392858 137.021554,19.4357964 135.260437,18.3591309 C133.49932,17.2824653 131.419079,16.7441406 129.019653,16.7441406 L129.019653,16.7441406 Z M126.228027,18.4052734 L128.858154,18.4052734 C131.980484,18.4052734 134.422171,19.3588772 136.183289,21.2661133 C137.944406,23.1733494 138.824951,25.541978 138.824951,28.3720703 C138.824951,31.2483054 137.802134,33.6284696 135.75647,35.5126343 C133.710805,37.396799 130.842304,38.3388672 127.150879,38.3388672 C124.689929,38.3388672 122.390514,38.0004917 120.252563,37.3237305 C118.114613,36.6469693 116.338142,35.6933655 114.923096,34.4628906 L116.215088,33.4246826 C117.476325,34.4552053 119.064383,35.255002 120.979309,35.8240967 C122.894236,36.3931913 124.951405,36.6777344 127.150879,36.6777344 C130.396256,36.6777344 132.876395,35.9010087 134.59137,34.3475342 C136.306344,32.7940596 137.163818,30.8022582 137.163818,28.3720703 C137.163818,25.9726443 136.44477,23.9885332 135.006653,22.4196777 C133.568535,20.8508222 131.511366,20.0664062 128.835083,20.0664062 L126.228027,20.0664062 C123.982411,20.0664062 122.298223,19.451178 121.175415,18.2207031 C120.052607,16.9902282 119.491211,15.3906348 119.491211,13.421875 C119.491211,11.4531152 120.187188,9.85352178 121.579163,8.62304688 C122.971137,7.39257197 125.059068,6.77734375 127.843018,6.77734375 C129.796396,6.77734375 131.61132,7.00420916 133.287842,7.45794678 C134.964364,7.9116844 136.348627,8.56151921 137.440674,9.4074707 L136.12561,10.4226074 C134.202993,9.0998469 131.442157,8.43847656 127.843018,8.43847656 C125.520496,8.43847656 123.824773,8.89605255 122.755798,9.81121826 C121.686823,10.726384 121.152344,11.9299242 121.152344,13.421875 C121.152344,14.9292068 121.548397,16.1365921 122.340515,17.0440674 C123.132633,17.9515426 124.428458,18.4052734 126.228027,18.4052734 L126.228027,18.4052734 Z M126.228027,21.7275391 L128.765869,21.7275391 C131.011486,21.7275391 132.695673,22.3504576 133.818481,23.5963135 C134.94129,24.8421693 135.502686,26.4340723 135.502686,28.3720703 C135.502686,30.3408302 134.806709,31.9404235 133.414734,33.1708984 C132.022759,34.4013733 129.934828,35.0166016 127.150879,35.0166016 C125.1975,35.0166016 123.378732,34.7897362 121.694519,34.3359985 C120.010307,33.8822609 118.622198,33.2324261 117.530151,32.3864746 L118.845215,31.3713379 C120.767832,32.6940984 123.536359,33.3554688 127.150879,33.3554688 C129.4734,33.3554688 131.169123,32.8978928 132.238098,31.9827271 C133.307073,31.0675613 133.841553,29.8640211 133.841553,28.3720703 C133.841553,26.8801195 133.441654,25.6765793 132.641846,24.7614136 C131.842037,23.8462479 130.542367,23.3886719 128.742798,23.3886719 L126.228027,23.3886719 C123.074935,23.3886719 120.610177,22.4466037 118.833679,20.562439 C117.057181,18.6782743 116.168945,16.2981101 116.168945,13.421875 C116.168945,10.5456399 117.191762,8.16547573 119.237427,6.28131104 C121.283091,4.39714634 124.151593,3.45507812 127.843018,3.45507812 C130.303967,3.45507812 132.599538,3.79345365 134.729797,4.47021484 C136.860057,5.14697604 138.632683,6.10057979 140.047729,7.33105469 L138.755737,8.3692627 C137.494501,7.33873996 135.910288,6.53894328 134.003052,5.96984863 C132.095816,5.40075399 130.042491,5.11621094 127.843018,5.11621094 C124.59764,5.11621094 122.117501,5.89293657 120.402527,7.44641113 C118.687552,8.9998857 117.830078,10.9916871 117.830078,13.421875 C117.830078,15.836682 118.552971,17.8246382 119.998779,19.3858032 C121.444587,20.9469683 123.520983,21.7275391 126.228027,21.7275391 L126.228027,21.7275391 Z M126.228027,25.0498047 L128.765869,25.0498047 C129.950201,25.0498047 130.80383,25.3574188 131.326782,25.9726562 C131.849734,26.5878937 132.111206,27.3876904 132.111206,28.3720703 C132.111206,30.5869251 130.45778,31.6943359 127.150879,31.6943359 C124.028549,31.6943359 121.682991,31.2329148 120.114136,30.3100586 L121.452271,29.2949219 C122.528936,29.7871118 124.428453,30.0332031 127.150879,30.0332031 C128.473639,30.0332031 129.361875,29.8870864 129.815613,29.5948486 C130.26935,29.3026108 130.496216,28.8950221 130.496216,28.3720703 C130.496216,27.8644994 130.369325,27.4607559 130.11554,27.1608276 C129.861754,26.8608994 129.396488,26.7109375 128.719727,26.7109375 L126.228027,26.7109375 C124.105458,26.7109375 122.186715,26.3648716 120.471741,25.6727295 C118.756766,24.9805874 117.349432,24.0269836 116.249695,22.8118896 C115.149958,21.5967957 114.307864,20.1894611 113.723389,18.5898438 C113.138913,16.9902264 112.84668,15.2675874 112.84668,13.421875 C112.84668,11.9453051 113.054319,10.5456609 113.469604,9.22290039 C113.88489,7.90013987 114.511654,6.68506413 115.349915,5.57763672 C116.188176,4.47020931 117.195612,3.51276039 118.372253,2.70526123 C119.548895,1.89776208 120.948539,1.26715315 122.571228,0.813415527 C124.193917,0.359677907 125.951162,0.1328125 127.843018,0.1328125 C130.811538,0.1328125 133.587756,0.582698138 136.171753,1.48248291 C138.75575,2.38226768 140.909049,3.63964036 142.631714,5.25463867 L141.293579,6.2467041 C139.724724,4.83165796 137.763684,3.73578269 135.4104,2.95904541 C133.057117,2.18230813 130.534681,1.79394531 127.843018,1.79394531 C125.735829,1.79394531 123.832467,2.09771425 122.132874,2.70526123 C120.43328,3.31280821 119.033636,4.14721149 117.933899,5.20849609 C116.834162,6.2697807 115.988223,7.50023714 115.396057,8.89990234 C114.803891,10.2995675 114.507812,11.8068767 114.507812,13.421875 C114.507812,15.590587 114.946163,17.5439366 115.822876,19.2819824 C116.699589,21.0200282 118.037711,22.4158273 119.83728,23.4694214 C121.63685,24.5230155 123.767078,25.0498047 126.228027,25.0498047 L126.228027,25.0498047 Z M173.947388,21.6121826 L172.286255,18.8666992 L172.286255,1.79394531 L173.947388,1.79394531 L173.947388,21.6121826 Z M177.269653,27.0570068 L175.608521,24.2653809 L175.608521,1.79394531 L177.269653,1.79394531 L177.269653,27.0570068 Z M180.591919,32.5710449 L178.930786,29.7563477 L178.930786,1.79394531 L180.591919,1.79394531 L180.591919,32.5710449 Z M156.782349,20.1817627 L158.443481,22.9272461 L158.443481,40 L156.782349,40 L156.782349,20.1817627 Z M153.460083,14.7369385 L155.121216,17.5285645 L155.121216,40 L153.460083,40 L153.460083,14.7369385 Z M150.137817,9.22290039 L151.79895,12.0375977 L151.79895,40 L150.137817,40 L150.137817,9.22290039 Z M150.7146,1.79394531 L152.652588,1.79394531 L176.13916,40 L174.201172,40 L150.7146,1.79394531 Z M154.636719,1.79394531 L156.597778,1.79394531 L180.061279,40 L178.077148,40 L154.636719,1.79394531 Z M158.535767,1.79394531 L160.473755,1.79394531 L182.253052,37.3006592 L182.253052,1.79394531 L183.914185,1.79394531 L183.914185,40 L181.953125,40 L158.535767,1.79394531 Z M148.476685,4.49328613 L148.476685,40 L146.815552,40 L146.815552,1.79394531 L148.799683,1.79394531 L172.217041,40 L170.302124,40 L148.476685,4.49328613 Z" id="TSN" sketch:type="MSShapeGroup"></path>
        </g>
    </g>
</svg>